<svg xmlns="http://www.w3.org/2000/svg" viewBox="0 0 520 220" width="520" height="220" font-family="Meiryo, sans-serif" font-size="11">
<rect x="0" y="0" width="520" height="220" fill="white"/>
<path d="M60 30 L60 190" stroke="#7b8794"/><text x="16" y="115" fill="#1a222b">カメラ</text><polygon points="60,100 75,92 75,108" fill="#1a222b"/>
<path d="M220 40 Q 300 20 370 60 L 370 150 Q 300 190 220 150 Z" fill="#a9d8dc" stroke="#0f7f8a" stroke-width="2"/>
<text x="290" y="105" fill="#0a5f68" text-anchor="middle">水</text>
<rect x="470" y="30" width="12" height="160" fill="#7b8794"/><text x="450" y="205" fill="#1a222b">背景 (床)</text>
<line x1="75" y1="100" x2="470" y2="100" stroke="#c0392b" stroke-dasharray="5 4"/>
<circle cx="222" cy="100" r="4" fill="#c0392b"/><text x="196" y="88" fill="#c0392b">表面 z_front</text>
<circle cx="368" cy="100" r="4" fill="#c0392b"/><text x="340" y="126" fill="#c0392b">裏面 z_back</text>
<circle cx="470" cy="100" r="4" fill="#c0392b"/><text x="404" y="88" fill="#c0392b">背景 z_scene</text>
<line x1="222" y1="160" x2="368" y2="160" stroke="#1a222b"/><line x1="222" y1="154" x2="222" y2="166" stroke="#1a222b"/><line x1="368" y1="154" x2="368" y2="166" stroke="#1a222b"/>
<text x="295" y="180" text-anchor="middle" fill="#1a222b">厚み = min(z_scene, z_back) − z_front</text>
</svg>